<svg  viewBox="0 0 20 30" fill="none" xmlns="http://www.w3.org/2000/svg">
<path fill-rule="evenodd" clip-rule="evenodd" d="M5.51878 0C2.46006 0 7.93803e-05 2.56625 7.93803e-05 5.71C7.93803e-05 7.62125 0.910072 9.31875 2.30881 10.355C1.58792 10.8951 1.00358 11.5966 0.602655 12.4032C0.201726 13.2099 -0.00464675 14.0992 7.93803e-05 15C7.93803e-05 16.9125 0.910072 18.6087 2.30881 19.645C1.58792 20.1851 1.00358 20.8866 0.602655 21.6932C0.201726 22.4999 -0.00464675 23.3892 7.93803e-05 24.29C7.93803e-05 27.4337 2.46006 30 5.51878 30C8.57626 30 11.0375 27.4337 11.0375 24.29V19.4625C12.0041 20.2685 13.2226 20.7103 14.4812 20.7113C17.5399 20.71 19.9999 18.1438 19.9999 15C20.0049 14.0992 19.7987 13.2097 19.3977 12.403C18.9968 11.5963 18.4123 10.8949 17.6912 10.355C18.4121 9.81489 18.9964 9.1134 19.3973 8.30676C19.7983 7.50012 20.0046 6.61077 19.9999 5.71C19.9999 2.56625 17.5399 0 14.4812 0H5.51878V0ZM2.07381 5.71C2.07381 3.72125 3.6263 2.12875 5.51878 2.12875H8.9625V9.29125H5.51878C3.6263 9.29125 2.07381 7.6975 2.07381 5.71V5.71ZM14.4812 9.29H11.0375V2.1275H14.4812C16.3749 2.1275 17.9262 3.72125 17.9262 5.71C17.9262 7.6975 16.3749 9.29 14.4812 9.29ZM2.07506 15C2.07506 13.0125 3.62755 11.4188 5.52003 11.4188H8.96375V18.5812H5.51878C3.62505 18.5812 2.07381 16.9875 2.07381 15H2.07506ZM11.0375 15C11.0375 13.0125 12.59 11.4188 14.4825 11.4188C16.3762 11.4188 17.9274 13.0113 17.9274 15C17.9274 16.9875 16.3762 18.5812 14.4825 18.5812C12.59 18.5812 11.0387 16.9887 11.0387 15H11.0375ZM2.07506 24.29C2.07506 22.3025 3.62755 20.71 5.52003 20.71H8.96375V24.29C8.96375 26.2787 7.41377 27.8713 5.52003 27.8713C3.62755 27.8713 2.07506 26.2787 2.07506 24.29Z" fill="white"/>
</svg>
