<svg  viewBox="0 0 33 33" fill="none" xmlns="http://www.w3.org/2000/svg">
<path d="M18.2598 11.8442L21.1483 14.7327M11.5073 5.09174L14.7361 8.32051M1.53371 15.0729C1.18957 15.468 1 15.9743 1 16.4983C1 17.0222 1.18957 17.5285 1.53371 17.9236L15.0764 31.4663C15.4715 31.8104 15.9778 32 16.5017 32C17.0257 32 17.532 31.8104 17.9271 31.4663L31.4622 17.9236C31.8093 17.53 32.0009 17.0231 32.0009 16.4983C32.0009 15.9734 31.8093 15.4666 31.4622 15.0729L17.9271 1.53027C17.5377 1.1746 17.025 0.984726 16.4979 1.00096C15.9721 0.987151 15.4618 1.17988 15.0764 1.53783L1.53371 15.0729Z" stroke="white" stroke-width="0.756151" stroke-linecap="round" stroke-linejoin="round"/>
<path d="M16.4979 25.349C17.876 25.349 18.9932 24.2318 18.9932 22.8537C18.9932 21.4756 17.876 20.3584 16.4979 20.3584C15.1198 20.3584 14.0026 21.4756 14.0026 22.8537C14.0026 24.2318 15.1198 25.349 16.4979 25.349Z" stroke="white" stroke-width="0.756151" stroke-linecap="round" stroke-linejoin="round"/>
<path d="M16.4979 12.5776C17.876 12.5776 18.9932 11.4605 18.9932 10.0823C18.9932 8.70422 17.876 7.58704 16.4979 7.58704C15.1198 7.58704 14.0026 8.70422 14.0026 10.0823C14.0026 11.4605 15.1198 12.5776 16.4979 12.5776Z" stroke="white" stroke-width="0.756151" stroke-linecap="round" stroke-linejoin="round"/>
<path d="M22.9101 18.9898C24.2882 18.9898 25.4054 17.8726 25.4054 16.4945C25.4054 15.1164 24.2882 13.9992 22.9101 13.9992C21.532 13.9992 20.4148 15.1164 20.4148 16.4945C20.4148 17.8726 21.532 18.9898 22.9101 18.9898Z" stroke="white" stroke-width="0.756151" stroke-linecap="round" stroke-linejoin="round"/>
<path d="M16.4979 20.3584V12.5776" stroke="white" stroke-width="0.756151" stroke-linecap="round" stroke-linejoin="round"/>
</svg>
