<svg  viewBox="0 0 30 30" fill="none" xmlns="http://www.w3.org/2000/svg">
<path fill-rule="evenodd" clip-rule="evenodd" d="M15 1.36302C7.43125 1.36302 1.30375 7.72422 1.30375 15.558C1.30375 21.3101 4.6075 26.26 9.3625 28.4865C9.86 28.72 10.3463 28.6274 10.7263 28.33C10.9364 28.1592 11.1058 27.94 11.2212 27.6895C11.3365 27.439 11.3948 27.164 11.3912 26.8861V26.1426L9.695 25.9026C9.68244 25.9008 9.66993 25.8987 9.6575 25.8961C8.7225 25.7057 8.09125 25.3626 7.62875 24.8683C7.24 24.4522 7.0025 23.954 6.80125 23.5313L6.73125 23.384C6.54524 22.9791 6.34213 22.5831 6.1225 22.197C5.95375 21.9179 5.8225 21.7744 5.6925 21.6844C5.3625 21.4562 5.045 21.0688 5.045 20.5849C5.04387 20.4456 5.07245 20.3078 5.12866 20.1815C5.18487 20.0551 5.26731 19.9434 5.37 19.8545C5.56382 19.6943 5.80537 19.6103 6.0525 19.6171C6.33 19.6171 6.59125 19.7058 6.80875 19.8075C7.03125 19.9118 7.2525 20.0501 7.45875 20.1936C7.96125 20.5431 8.45625 20.9566 8.875 21.4666C9.31125 21.9962 9.62 22.3327 10.085 22.4018C10.4675 22.4592 10.8575 22.4605 11.1612 22.4461C11.2035 22.1952 11.2731 21.9501 11.3688 21.7157C10.9978 21.6254 10.6318 21.5139 10.2725 21.3818C9.455 21.0792 8.54375 20.6084 7.93125 19.8949C7.25875 19.1097 6.8425 18.4093 6.61 17.5901C6.38375 16.7919 6.34625 15.9271 6.34625 14.8628C6.34625 13.2324 7.0225 11.8589 7.53 11.1298C7.33502 10.4915 7.19488 9.83629 7.11125 9.17202C7.05586 8.75311 7.05628 8.32822 7.1125 7.90943C7.175 7.52727 7.33125 7.05771 7.7425 6.77467C8.13875 6.49946 8.60375 6.5112 8.96625 6.58163C9.3425 6.65598 9.73375 6.81902 10.0937 7.00554C10.68 7.30814 11.2625 7.71248 11.6988 8.05552C12.4513 7.82465 13.7825 7.52727 14.9863 7.49988H15.0137C16.2187 7.52727 17.49 7.82465 18.2238 8.05421C18.6613 7.71248 19.2425 7.30684 19.8275 7.00554C20.1875 6.81902 20.5775 6.65598 20.955 6.58163C21.3175 6.5112 21.7825 6.49946 22.18 6.77337C22.59 7.05771 22.7475 7.52727 22.8087 7.90943C22.8725 8.30725 22.8575 8.75203 22.8087 9.17202C22.7255 9.83625 22.5858 10.4914 22.3913 11.1298C22.8988 11.8602 23.575 13.2337 23.575 14.8628C23.575 15.9271 23.5375 16.7919 23.3125 17.5888C23.0787 18.4106 22.6625 19.1097 21.99 19.8949C21.3775 20.6084 20.4662 21.0792 19.6487 21.3818C19.2148 21.541 18.7714 21.6704 18.3212 21.7692C18.475 22.2544 18.53 22.647 18.53 22.8727V26.903C18.53 27.5161 18.8038 28.0391 19.1925 28.3443C19.57 28.643 20.055 28.7356 20.5525 28.5087C25.3525 26.3017 28.695 21.3388 28.695 15.5567C28.695 7.72422 22.57 1.36302 15 1.36302ZM11.845 23.7518C11.52 23.8 11.8438 23.7518 11.8438 23.7518H11.84L11.83 23.7544L11.7938 23.7596C11.6081 23.7824 11.4217 23.7985 11.235 23.8079C10.7901 23.8321 10.3441 23.8133 9.9025 23.7518C8.91375 23.6057 8.3125 22.8753 7.92375 22.4005L7.88625 22.3561C7.75915 22.2023 7.62261 22.0572 7.4775 21.9218C7.60625 22.1696 7.74 22.4461 7.88375 22.7435L7.89625 22.7696L7.96 22.9053C8.17875 23.3592 8.3225 23.6618 8.56125 23.9148C8.79375 24.1626 9.15625 24.4026 9.88875 24.5539L12.1312 24.8709C12.2879 24.893 12.4315 24.9737 12.5354 25.098C12.6393 25.2222 12.6965 25.3816 12.6962 25.5465V26.8861C12.6962 27.9295 12.2275 28.8595 11.5087 29.423C11.1314 29.7239 10.6825 29.9115 10.2104 29.9658C9.73836 30.02 9.26106 29.9388 8.83 29.7308C3.6275 27.2956 0 21.8736 0 15.558C0 6.95989 6.72125 0 15 0C23.2788 0 30 6.95989 30 15.558C30 21.9062 26.3263 27.3426 21.0788 29.7569C20.6473 29.9609 20.1709 30.0387 19.7004 29.982C19.2298 29.9252 18.7829 29.7361 18.4075 29.4347C18.0363 29.1365 17.7363 28.7526 17.5312 28.3131C17.326 27.8737 17.2212 27.3906 17.225 26.9017V22.8714C17.225 22.7801 17.1638 22.2531 16.8225 21.5449C16.7754 21.4467 16.7517 21.338 16.7533 21.2282C16.755 21.1184 16.782 21.0107 16.832 20.914C16.882 20.8174 16.9536 20.7348 17.0408 20.6732C17.1279 20.6116 17.228 20.5728 17.3325 20.5601C17.9733 20.4763 18.6037 20.3206 19.2125 20.0958C19.955 19.8218 20.6212 19.4462 21.0175 18.9845C21.6062 18.2984 21.9 17.7714 22.0613 17.2015C22.2288 16.6106 22.2712 15.9232 22.2712 14.8628C22.2712 13.3746 21.5212 12.1237 21.1762 11.7207C21.0979 11.6296 21.0445 11.5182 21.0217 11.3982C20.9988 11.2782 21.0073 11.1539 21.0462 11.0385C21.2684 10.3814 21.4255 9.70217 21.515 9.01159C21.555 8.6529 21.5575 8.3529 21.5225 8.13639C21.5147 8.05722 21.4917 7.9805 21.455 7.91074C21.3689 7.8952 21.2807 7.8992 21.1963 7.92248C20.9838 7.96422 20.7125 8.06856 20.405 8.22769C19.7925 8.54334 19.155 9.01029 18.76 9.34419C18.6729 9.41794 18.569 9.4669 18.4584 9.48633C18.3477 9.50576 18.2342 9.49499 18.1288 9.45506C17.1167 9.10961 16.0639 8.9108 15 8.8642C13.7413 8.8955 12.2888 9.26854 11.7925 9.45506C11.6871 9.49499 11.5735 9.50576 11.4629 9.48633C11.3523 9.4669 11.2484 9.41794 11.1612 9.34419C10.6504 8.91507 10.0993 8.54099 9.51625 8.22769C9.26589 8.0905 8.99949 7.9879 8.72375 7.92248C8.63971 7.89939 8.5519 7.89539 8.46625 7.91074C8.42951 7.98048 8.40655 8.05722 8.39875 8.13639C8.36375 8.3529 8.36625 8.6529 8.40625 9.01159C8.49633 9.70205 8.65339 10.3812 8.875 11.0385C8.95375 11.2733 8.905 11.5342 8.745 11.7207C8.4 12.1237 7.65 13.3746 7.65 14.8628C7.65 15.9219 7.6925 16.6106 7.86 17.2015C8.0225 17.7714 8.315 18.2971 8.9025 18.9845C9.3 19.4462 9.965 19.8218 10.7088 20.0958C11.3172 20.3204 11.9471 20.4761 12.5875 20.5601C12.7193 20.5748 12.8436 20.6311 12.9439 20.7214C13.0443 20.8117 13.1159 20.9317 13.1493 21.0655C13.1827 21.1994 13.1763 21.3406 13.1308 21.4705C13.0854 21.6004 13.0031 21.7128 12.895 21.7927C12.6887 21.9466 12.5525 22.2231 12.4762 22.5427C12.4369 22.7072 12.4134 22.8754 12.4063 23.0448V23.0696C12.4078 23.235 12.3518 23.3953 12.2486 23.5208C12.1453 23.6463 12.0019 23.7284 11.845 23.7518V23.7518Z" fill="white"/>
</svg>
