<svg viewBox="0 0 30 30" fill="none" xmlns="http://www.w3.org/2000/svg">
<path d="M0 0H30V30H0V0Z" fill="white"/>
<path d="M18.809 21.875C19.0476 22.3596 19.4182 22.7669 19.8782 23.05C20.3383 23.3331 20.8689 23.4804 21.409 23.475C22.499 23.475 23.196 22.93 23.196 22.175C23.196 21.275 22.48 20.953 21.28 20.428L20.622 20.146C18.722 19.337 17.462 18.324 17.462 16.182C17.462 14.209 18.962 12.706 21.315 12.706C22.0767 12.651 22.8378 12.8215 23.5032 13.1962C24.1687 13.5709 24.7091 14.1332 25.057 14.813L23 16.128C22.866 15.7909 22.6327 15.5025 22.3311 15.3011C22.0295 15.0996 21.6737 14.9946 21.311 15C21.1528 14.9842 20.993 15.0014 20.8418 15.0508C20.6906 15.1001 20.5513 15.1804 20.4329 15.2865C20.3145 15.3926 20.2194 15.5223 20.1538 15.6671C20.0883 15.812 20.0536 15.969 20.052 16.128C20.052 16.917 20.541 17.237 21.67 17.728L22.328 18.01C24.564 18.969 25.828 19.946 25.828 22.143C25.828 24.512 23.967 25.81 21.468 25.81C20.4943 25.872 19.5235 25.651 18.6726 25.1735C17.8218 24.696 17.1273 23.9824 16.673 23.119L18.809 21.875ZM9.51401 22.103C9.92701 22.836 10.303 23.456 11.207 23.456C12.071 23.456 12.617 23.118 12.617 21.803V12.856H15.248V21.838C15.248 24.562 13.648 25.802 11.319 25.802C10.4958 25.847 9.67816 25.6418 8.97369 25.2135C8.26923 24.7851 7.71086 24.1536 7.37201 23.402L9.51401 22.103Z" fill="black"/>
</svg>
