<svg width="20" height="20" viewBox="0 0 20 20" fill="none" xmlns="http://www.w3.org/2000/svg">
<path fill-rule="evenodd" clip-rule="evenodd" d="M9.47667 0.158127C9.79333 -0.0527089 10.2058 -0.0527089 10.5233 0.158127L19.5767 6.16652C19.8408 6.34152 20 6.63736 20 6.95486V13.0449C20 13.3616 19.8417 13.6583 19.5767 13.8341L10.5233 19.8425C10.2067 20.0525 9.79417 20.0525 9.47667 19.8425L0.423333 13.8333C0.293237 13.747 0.186506 13.6298 0.112645 13.4923C0.038784 13.3547 8.68617e-05 13.2011 0 13.0449L0 6.95486C0 6.63819 0.158333 6.34152 0.423333 6.16569L9.47667 0.158127ZM1.89333 8.71905V11.2674L3.8 9.98406L1.89333 8.71905V8.71905ZM5.5075 11.1174L2.65 13.0399L9.05333 17.29V13.4708L5.50833 11.1174H5.5075ZM10.9467 13.4708V17.2891L17.35 13.0391L14.4917 11.1174L10.9467 13.4708V13.4708ZM16.1992 9.9849L18.1075 11.2682V8.71822L16.1992 9.9849V9.9849ZM17.3417 6.95486L14.5 8.84072L10.9467 6.45069V2.71065L17.3417 6.95486ZM9.05333 2.71065V6.44986L5.50083 8.83988L2.65833 6.95486L9.05333 2.71065V2.71065ZM10 8.09571L7.20833 9.97406L10 11.8266L12.7917 9.97406L10 8.09571Z" fill="white"/>
</svg>
